# xmcd
#
# Track frame offsets:
#	150
#	6070
#	25303
#	28641
#	39588
#	41200
#	52209
#	55018
#	69480
#	72428
#	91454
#	93433
#	101209
#	107002
#	123973
#	127788
#	143051
#	148555
#
# Disc length: 2187 seconds
#
# Revision: 0
# Processed by: cddbd v1.5.2PL0 Copyright (c) Steve Scherf et al.
# Submitted via: EasyCDDAExtractor 4.6.9.1
#
DISCID=fd088912
DTITLE=Talma, Meindert and the Negroes - Nu geloof ik wat er in de bijbel staat
DYEAR=2006
DGENRE=blues
TTITLE0=Psalm 102: introductie
TTITLE1=Charles Guiteau
TTITLE2=Gezang 477: introductie
TTITLE3=Apostel Johannes
TTITLE4=Gezang 188: introductie
TTITLE5=Oh was ik maar een mol onder de grond
TTITLE6=Psalm 6: introductie
TTITLE7=Gevangeniscel Blues
TTITLE8=Psalm 6: introductie
TTITLE9=Dorre Beenderen
TTITLE10=Psalm 3: introductie
TTITLE11=Vrijgezel meisje
TTITLE12=Psalm 92: introductie
TTITLE13=John Henry
TTITLE14=Psalm 3: introductie
TTITLE15=Stackalee
TTITLE16=Psalm 144: introductie
TTITLE17=Hou alsjeblieft mijn graf schoon
EXTD=
EXTT0=
EXTT1=
EXTT2=
EXTT3=
EXTT4=
EXTT5=
EXTT6=
EXTT7=
EXTT8=
EXTT9=
EXTT10=
EXTT11=
EXTT12=
EXTT13=
EXTT14=
EXTT15=
EXTT16=
EXTT17=
PLAYORDER=
